<?xml version="1.0" standalone="no"?>
<!DOCTYPE svg PUBLIC "-//W3C//DTD SVG 20010904//EN"
 "http://www.w3.org/TR/2001/REC-SVG-20010904/DTD/svg10.dtd">
<svg version="1.0" xmlns="http://www.w3.org/2000/svg"
 width="1288.000000pt" height="1288.000000pt" viewBox="0 0 1288.000000 1288.000000"
 preserveAspectRatio="xMidYMid meet">
<metadata>
Created by potrace 1.11, written by Peter Selinger 2001-2013
</metadata>
<g transform="translate(0.000000,1288.000000) scale(0.100000,-0.100000)"
fill="#000000" stroke="none">
<path d="M5595 10788 c0 -332 -1 -610 -3 -619 -3 -14 -88 -16 -885 -15 -485 1
-890 -1 -900 -3 -10 -2 -17 -11 -16 -20 1 -9 0 -18 -1 -21 -1 -3 -4 -25 -5
-50 -2 -25 -4 -45 -5 -45 -1 0 -3 -16 -5 -35 -1 -19 -6 -62 -9 -95 -4 -33 -9
-82 -11 -110 -4 -51 -10 -105 -19 -185 -3 -25 -8 -67 -10 -95 -9 -98 -17 -181
-22 -215 -3 -19 -7 -55 -9 -80 -12 -134 -15 -159 -20 -186 -8 -39 -13 -59 -15
-59 -1 0 -3 -7 -5 -17 -3 -16 -48 -177 -64 -233 -22 -70 -120 -432 -123 -450
-2 -11 -6 -22 -10 -25 -4 -3 -9 -19 -12 -35 -2 -17 -5 -30 -6 -30 -1 0 -4 -9
-6 -20 -3 -11 -6 -24 -8 -30 -1 -5 -6 -23 -11 -40 -4 -16 -18 -67 -32 -112
-13 -45 -26 -90 -28 -100 -2 -10 -38 -141 -80 -291 -58 -209 -73 -277 -65
-287 6 -8 46 -35 88 -61 42 -26 107 -67 144 -91 37 -23 72 -43 78 -43 5 0 10
-4 10 -9 0 -5 14 -14 30 -21 l30 -12 1 -137 c1 -473 17 -1469 22 -1501 3 -14
8 -47 11 -75 4 -27 10 -66 13 -85 3 -19 7 -51 8 -70 2 -19 4 -35 5 -35 3 0 9
-41 12 -80 l3 -40 -1500 -1 c-825 -1 -1503 -2 -1507 -3 -5 -1 -8 -5 -8 -10 0
-5 -13 -38 -29 -73 -58 -128 -150 -343 -153 -358 -2 -8 -5 -17 -8 -20 -3 -3
-21 -41 -40 -85 -19 -44 -37 -82 -40 -85 -3 -3 -7 -14 -8 -25 -2 -11 -10 -31
-17 -45 -13 -24 -45 -95 -115 -260 -18 -41 -45 -103 -61 -138 -16 -34 -29 -69
-29 -77 0 -8 -4 -15 -10 -15 -5 0 -10 -5 -10 -12 0 -12 -77 -198 -112 -268 -9
-19 -13 -38 -10 -42 8 -8 197 -79 218 -82 7 -1 17 -5 20 -9 4 -4 16 -7 26 -7
10 0 18 -5 18 -10 0 -6 3 -9 8 -8 9 3 143 -42 157 -52 6 -4 22 -10 37 -14 15
-3 40 -11 55 -18 15 -6 33 -12 38 -14 14 -4 170 -62 231 -85 29 -11 58 -22 65
-23 8 -2 27 -8 42 -14 16 -7 30 -12 32 -12 2 0 16 -5 32 -12 15 -6 31 -12 36
-13 4 -2 9 -4 12 -5 3 -1 8 -3 13 -5 4 -1 14 -4 22 -8 8 -3 71 -26 140 -51 69
-24 139 -50 155 -57 17 -7 35 -13 41 -14 16 -4 183 -65 221 -81 17 -8 33 -14
36 -14 3 0 18 -5 34 -12 15 -6 33 -12 40 -14 7 -1 61 -20 120 -42 59 -22 158
-59 218 -81 61 -23 113 -41 117 -41 3 0 23 -8 44 -17 22 -9 46 -18 54 -19 8
-2 48 -17 88 -33 41 -17 77 -30 80 -29 4 1 18 -3 32 -9 49 -22 125 -47 133
-45 4 1 7 -3 7 -9 0 -5 4 -8 9 -4 5 3 12 1 16 -5 3 -5 16 -10 29 -10 12 0 26
-4 32 -10 5 -5 18 -11 29 -13 11 -2 34 -10 50 -17 17 -6 41 -16 55 -20 14 -5
63 -23 110 -40 47 -17 97 -35 111 -40 61 -18 69 -27 65 -75 -3 -25 0 -45 5
-45 6 0 7 -5 3 -11 -10 -17 -12 -149 -2 -149 5 0 6 -5 2 -12 -12 -19 -11 -608
1 -610 6 0 1492 -2 3303 -3 2324 -1 3292 2 3293 9 5 61 3 156 -4 156 -4 0 -5
5 -1 12 10 16 11 228 1 228 -5 0 -5 5 -1 12 11 17 11 228 0 228 -5 0 -4 6 1
12 5 7 8 61 8 120 l-2 107 71 22 c39 12 76 25 81 29 6 4 44 19 85 33 41 14
113 40 160 57 47 18 117 43 155 56 39 13 79 28 90 33 11 5 43 16 70 26 28 9
57 19 65 22 8 4 17 7 20 8 3 1 18 7 33 13 16 7 31 12 35 12 6 0 128 45 177 66
11 4 25 9 30 9 6 1 24 8 40 15 17 6 41 16 55 20 14 5 55 19 92 33 37 14 69 22
72 19 3 -3 6 0 6 6 0 7 8 12 18 12 10 0 22 3 26 7 3 4 12 8 19 9 13 3 79 26
192 69 39 15 75 28 80 29 6 1 15 4 20 8 6 3 26 11 45 16 19 6 70 24 113 40 42
17 77 28 77 25 0 -3 7 0 15 7 8 7 15 9 15 5 0 -4 6 -3 13 3 11 9 79 37 117 47
8 2 47 16 85 30 39 15 90 33 115 42 25 8 56 20 70 26 14 5 30 11 35 12 14 4
219 79 335 124 52 20 100 36 105 37 6 0 24 6 40 13 36 15 118 45 202 73 50 18
60 25 53 37 -4 9 -9 21 -10 26 -4 15 -17 50 -41 103 -12 26 -27 62 -35 80 -8
17 -22 49 -31 70 -10 20 -17 39 -18 42 0 3 -4 11 -8 18 -5 6 -5 12 0 12 4 0 2
4 -5 9 -7 4 -15 14 -16 22 -2 8 -11 32 -20 54 -10 22 -45 103 -78 180 -61 141
-87 200 -116 265 -9 19 -17 37 -17 40 -3 9 -22 54 -54 124 -17 38 -31 75 -31
82 0 8 -4 14 -10 14 -5 0 -10 6 -10 13 0 16 -123 299 -142 329 l-15 23 -1500
0 c-1349 -1 -1500 1 -1498 15 2 8 6 40 10 70 8 57 12 81 15 90 1 3 2 9 1 13
-1 7 8 69 24 172 4 22 8 96 10 165 2 69 4 130 5 135 1 6 1 15 0 20 -1 6 -1 30
-1 55 1 93 13 1030 14 1154 l2 130 30 17 c17 10 35 21 41 26 12 9 26 18 121
75 40 24 73 46 73 51 0 4 5 7 10 7 6 0 35 16 64 36 l54 36 -13 39 c-8 22 -15
43 -15 47 -2 14 -13 58 -26 102 -18 63 -106 373 -108 385 -1 6 -8 27 -15 47
-7 21 -10 42 -7 47 4 5 3 11 -1 13 -7 3 -29 74 -57 186 -3 9 -15 51 -27 92
-12 41 -22 81 -22 88 0 6 -3 12 -7 12 -4 0 -7 8 -7 18 1 9 -7 44 -17 77 -10
33 -20 68 -22 78 -2 9 -6 26 -8 37 -3 11 -7 24 -10 29 -3 4 -19 59 -36 122
-17 63 -32 119 -34 124 -1 6 -8 30 -15 55 -7 25 -15 56 -18 69 -2 14 -7 29
-11 35 -3 6 -8 27 -9 46 -2 19 -5 53 -7 75 -3 22 -7 69 -11 105 -3 36 -8 83
-10 105 -7 55 -14 131 -19 185 -2 25 -5 45 -6 45 -1 0 -2 18 -3 40 -2 22 -6
46 -10 53 -5 7 -3 12 3 12 6 0 8 5 4 12 -4 6 -8 25 -10 42 -1 17 -5 56 -9 86
-3 30 -8 75 -10 100 -2 25 -7 72 -10 105 -4 33 -8 77 -9 98 -2 20 -6 40 -10
44 -3 4 -422 7 -931 7 l-925 -1 0 196 c-1 108 0 386 0 619 l1 422 -819 0 -818
0 1 -602z"/>
</g>
</svg>
