<svg xmlns="http://www.w3.org/2000/svg" viewBox="0 0 160.75 123.63"><defs><style>.cls-1{fill:#ffed00;}.cls-2{fill:#f39200;}.cls-3{fill:#432918;}.cls-4{fill:#fdc100;}</style></defs><title>Element 1</title><g id="Ebene_2" data-name="Ebene 2"><g id="primary_logo" data-name="primary logo"><polygon class="cls-1" points="109.46 70.66 112.72 56.26 85.68 73.11 109.46 70.66"/><polygon class="cls-1" points="75.06 73.11 48.03 56.26 51.29 70.66 75.06 73.11"/><polygon class="cls-2" points="80.37 102.69 91.74 101.69 91.74 93.24 69 93.24 69 101.69 80.37 102.69"/><rect class="cls-2" x="76.56" y="4.21" width="9.44" height="43.47"/><polygon class="cls-2" points="53.89 100.38 66 101.43 66 90.79 94.75 86.47 94.75 101.43 106.85 100.38 112.58 73.85 81.5 74.66 112.46 48.37 109.66 21.02 90.21 19.26 90.21 51.88 69.81 51.88 69.81 19.33 51.09 21.02 48.28 48.37 79.25 74.66 48.17 73.85 53.89 100.38"/><polygon class="cls-2" points="150.24 82.93 114.47 82.93 111.29 105.86 81.94 105.86 78.81 105.86 49.45 105.86 46.27 82.93 17.22 82.93 11.41 96.33 46 110.14 46 120.13 79.34 120.13 81.41 120.13 118.08 120.13 118.08 110.14 156.05 96.33 150.24 82.93"/><path class="cls-3" d="M115,79.42l.77-5.57L116,54.24l4.9-3.06-6-21.55-1.46-14.2H90.21V0H69.81V15.43H47.35l-1.46,14.2-6,21.55,4.91,3.06L45,73.85l.78,5.57H8.21L0,98.35l39.16,14.24v11h82.43v-11l39.16-14.24-8.21-18.93ZM76.56,4.21H86V47.67H76.56ZM51.09,21l18.72-1.69V51.88h20.4V19.26L109.66,21l2.8,27.35-31,26.29,31.08-.81-5.73,26.53-12.1,1.05v-15L66,90.79v10.64l-12.11-1.05L48.17,73.85l31.08.81-31-26.29Zm61.63,35.24-3.26,14.4L85.68,73.11Zm-21,37v8.45l-11.37,1-11.37-1V93.24ZM75.06,73.11,51.29,70.66,48,56.26Zm43,37v10H46v-10L11.41,96.33l5.81-13.4H46.27l3.18,22.93h61.84l3.18-22.93h35.77l5.81,13.4Z"/><polygon class="cls-4" points="70.09 100.7 70.09 94.32 80.2 94.32 80.2 101.58 70.09 100.7"/><rect class="cls-4" x="77.64" y="5.29" width="2.56" height="41.3"/><path class="cls-4" d="M54.78,99.37,49.52,75l30.68.81V87.56l-15.28,2.3v10.39ZM49.42,47.92,52.07,22l16.65-1.51V53H80.2V74.05Z"/><polygon class="cls-4" points="47.08 119.05 47.08 109.41 12.85 95.74 17.93 84.01 45.33 84.01 48.51 106.94 80.2 106.94 80.2 119.05 47.08 119.05"/></g></g></svg>